<svg width="120" height="79" viewBox="0 0 120 79" fill="none" xmlns="http://www.w3.org/2000/svg">
<path d="M20.5718 78.7038C14.8892 78.7038 10.1988 76.9011 6.50054 73.2956C2.80233 69.6902 0.863018 65.4701 0.682617 60.6356C0.682617 59.98 0.727718 59.2425 0.817918 58.4231C0.908119 57.6037 1.04342 56.8662 1.22382 56.2107L12.5891 14.9119C13.8519 10.5689 16.446 7.00445 20.3716 4.21841C24.2935 1.43238 28.6898 0.0393677 33.5607 0.0393677H86.3279C91.1987 0.0393677 95.5951 1.43238 99.517 4.21841C103.443 7.00445 106.037 10.5689 107.3 14.9119L118.665 56.2107C118.845 56.9482 119.004 57.7053 119.141 58.4821C119.275 59.2622 119.341 60.021 119.341 60.7585C119.341 65.675 117.425 69.895 113.594 73.4185C109.758 76.942 104.999 78.7038 99.3168 78.7038C95.5284 78.7038 92.0105 77.8024 88.7633 75.9997C85.5161 74.197 83.0807 71.7387 81.4571 68.6249L77.6687 61.4959C77.2177 60.5946 76.5646 59.9604 75.7095 59.5933C74.8508 59.2229 73.8802 59.0377 72.7978 59.0377H47.0907C46.0083 59.0377 45.0396 59.2229 44.1845 59.5933C43.3258 59.9604 42.6709 60.5946 42.2199 61.4959L38.4315 68.6249C36.8079 71.7387 34.3725 74.197 31.1253 75.9997C27.878 77.8024 24.3602 78.7038 20.5718 78.7038ZM20.9777 68.8707C22.5111 68.8707 23.9778 68.502 25.3777 67.7645C26.774 67.027 27.9231 65.8799 28.8251 64.323L32.6136 57.3169C33.9666 54.7767 35.9275 52.7904 38.4964 51.3581C41.0689 49.9224 43.9337 49.2046 47.0907 49.2046H72.7978C75.8647 49.2046 78.706 49.9421 81.3218 51.4171C83.9376 52.892 85.9671 54.8586 87.4103 57.3169L91.1987 64.323C92.1007 65.8799 93.2517 67.027 94.6516 67.7645C96.0479 68.502 97.5128 68.8707 99.0462 68.8707C101.391 68.8707 103.511 68.1333 105.405 66.6583C107.299 65.1833 108.292 63.2577 108.382 60.8814V59.7112C108.382 59.3441 108.292 58.9557 108.111 58.546L96.7461 17.3701C96.1146 15.1577 94.8519 13.355 92.9576 11.9619C91.0634 10.5689 88.8535 9.87242 86.3279 9.87242H33.5607C31.0351 9.87242 28.8035 10.5689 26.866 11.9619C24.9249 13.355 23.6837 15.1577 23.1425 17.3701L11.7773 58.546C11.5969 59.0377 11.5067 59.7752 11.5067 60.7585C11.5067 63.1348 12.4989 65.0817 14.4833 66.5993C16.4677 68.1136 18.6325 68.8707 20.9777 68.8707ZM68.0623 34.4551C66.5289 34.4551 65.2445 33.9831 64.209 33.0391C63.1699 32.0984 62.6503 30.9315 62.6503 29.5385C62.6503 28.1455 63.1699 26.977 64.209 26.033C65.2445 25.0923 66.5289 24.622 68.0623 24.622C69.5957 24.622 70.882 25.0923 71.9211 26.033C72.9566 26.977 73.4743 28.1455 73.4743 29.5385C73.4743 30.9315 72.9566 32.0984 71.9211 33.0391C70.882 33.9831 69.5957 34.4551 68.0623 34.4551ZM78.8864 24.622C77.353 24.622 76.0685 24.15 75.033 23.206C73.9939 22.2653 73.4743 21.0985 73.4743 19.7055C73.4743 18.3125 73.9939 17.144 75.033 16.2C76.0685 15.2593 77.353 14.7889 78.8864 14.7889C80.4198 14.7889 81.7042 15.2593 82.7397 16.2C83.7788 17.144 84.2984 18.3125 84.2984 19.7055C84.2984 21.0985 83.7788 22.2653 82.7397 23.206C81.7042 24.15 80.4198 24.622 78.8864 24.622ZM78.8864 44.2881C77.353 44.2881 76.0685 43.8161 75.033 42.8721C73.9939 41.9314 73.4743 40.7646 73.4743 39.3716C73.4743 37.9786 73.9939 36.8101 75.033 35.8661C76.0685 34.9254 77.353 34.4551 78.8864 34.4551C80.4198 34.4551 81.7042 34.9254 82.7397 35.8661C83.7788 36.8101 84.2984 37.9786 84.2984 39.3716C84.2984 40.7646 83.7788 41.9314 82.7397 42.8721C81.7042 43.8161 80.4198 44.2881 78.8864 44.2881ZM89.7104 34.4551C88.177 34.4551 86.8926 33.9831 85.8571 33.0391C84.8179 32.0984 84.2984 30.9315 84.2984 29.5385C84.2984 28.1455 84.8179 26.977 85.8571 26.033C86.8926 25.0923 88.177 24.622 89.7104 24.622C91.2438 24.622 92.5283 25.0923 93.5638 26.033C94.6029 26.977 95.1225 28.1455 95.1225 29.5385C95.1225 30.9315 94.6029 32.0984 93.5638 33.0391C92.5283 33.9831 91.2438 34.4551 89.7104 34.4551ZM41.0022 41.8298C39.9198 41.8298 38.9727 41.4611 38.1609 40.7236C37.3491 39.9861 36.9432 39.1258 36.9432 38.1424V33.2259H31.5312C30.4488 33.2259 29.5016 32.8572 28.6898 32.1197C27.878 31.3822 27.4721 30.5218 27.4721 29.5385C27.4721 28.5552 27.878 27.6948 28.6898 26.9574C29.5016 26.2199 30.4488 25.8511 31.5312 25.8511H36.9432V20.9346C36.9432 19.9513 37.3491 19.0909 38.1609 18.3534C38.9727 17.6159 39.9198 17.2472 41.0022 17.2472C42.0846 17.2472 43.0317 17.6159 43.8435 18.3534C44.6553 19.0909 45.0612 19.9513 45.0612 20.9346V25.8511H50.4732C51.5556 25.8511 52.5028 26.2199 53.3146 26.9574C54.1264 27.6948 54.5323 28.5552 54.5323 29.5385C54.5323 30.5218 54.1264 31.3822 53.3146 32.1197C52.5028 32.8572 51.5556 33.2259 50.4732 33.2259H45.0612V38.1424C45.0612 39.1258 44.6553 39.9861 43.8435 40.7236C43.0317 41.4611 42.0846 41.8298 41.0022 41.8298Z" fill="#EDEAF7"/>
</svg>
